<svg width="28" height="28" viewBox="0 0 28 28" fill="none" xmlns="http://www.w3.org/2000/svg">
<rect width="28" height="28" fill="black" fill-opacity="0"/>
<circle cx="14" cy="14" r="14" fill="black"/>
<mask id="mask0" mask-type="alpha" maskUnits="userSpaceOnUse" x="5" y="5" width="18" height="18">
<rect x="5" y="5" width="18" height="18" fill="#0667D0"/>
</mask>
<g mask="url(#mask0)">
<path fill-rule="evenodd" clip-rule="evenodd" d="M10.3812 13.1557L11.279 14.7108L17.2698 11.2509L17.4933 11.3114L17.0897 14.0116L17.0305 14.2357L16.387 14.6093L12.9112 16.6142L12.5115 16.8451L9.96694 18.3139L6.1025 20.5453L5.87899 20.4843L6.28261 17.7841L6.34182 17.5604L8.34737 16.4022L8.73446 16.1801L6.61251 12.5048L6.67226 12.2816L17.9712 5.7582L18.1955 5.81728L17.7821 8.50625L17.7263 8.72646L10.4409 12.933L10.3812 13.1557ZM10.5155 19.2641L12.1619 22.1161L12.385 22.1757L21.6499 16.8266L21.7134 16.6015L22.1481 13.9003L21.927 13.8393L13.7052 18.5863L13.4823 18.5263L13.06 17.7953L10.5155 19.2641Z" fill="white"/>
</g>
</svg>
