<svg width="73" height="21" viewBox="0 0 73 21" fill="none" xmlns="http://www.w3.org/2000/svg">
<rect width="73" height="21" fill="black" fill-opacity="0"/>
<path fill-rule="evenodd" clip-rule="evenodd" d="M0.573486 20.4194H15.5191L15.8126 20.127V16.335L15.5191 16.043H5.84882L5.55536 15.751V12.543L5.84882 12.251H14.9322L15.2256 11.959V8.1665L14.9322 7.87451H5.84882L5.55536 7.58252V4.6665L5.84882 4.37451H15.5191L15.8126 4.08252V0.291992L15.5191 0H0.573486L0.280029 0.290527V20.127L0.573486 20.4194ZM33.3959 20.4194H36.0335L36.3253 20.1357V16.3438L31.0499 9.91064V9.62549L36.0335 4.08252V0.291992L35.7401 0H33.1024L32.5103 0.290527L27.5336 6.41602H27.2401L22.2653 0.291992L21.6801 0H19.0354L18.7419 0.290527V4.08252L23.7238 9.61865V9.91064L18.4485 16.3438V20.127L18.7419 20.4194H21.3796L21.9648 20.127L27.2401 13.1255H27.5336L32.809 20.127L33.3959 20.4194ZM44.5301 20.4194H39.8469L39.5552 20.127V0.290527L39.8469 0H44.537L44.8288 0.291992V20.127L44.5301 20.4194ZM67.0969 20.4194H71.7836L72.0858 20.127V0.291992L71.7923 0H66.2235L65.923 0.291992L60.6477 13.4194H60.3542L55.0789 0.291992L54.7855 0H49.2167L48.9302 0.290527V20.127L49.2167 20.4194H53.9068L54.2003 20.127V10.792H54.492L58.3035 20.127L58.5952 20.4194H62.4067L62.7002 20.127L66.51 10.792H66.8035V20.127L67.0969 20.4194Z" fill="#0F2952"/>
</svg>
