<svg width="200" height="44" viewBox="0 0 200 44" fill="none" xmlns="http://www.w3.org/2000/svg">
<rect width="200" height="44" fill="black" fill-opacity="0"/>
<path d="M200 0H0V44H200V0Z" fill="#0667D0"/>
<path fill-rule="evenodd" clip-rule="evenodd" d="M105.169 10.3999C98.3975 10.3999 94.5296 15.2344 94.5296 22.0039C94.5296 28.7847 98.3879 33.6094 105.153 33.6074C110.639 33.6074 113.541 30.3853 114.184 26.5151L113.862 26.1943H111.283L110.96 26.5151C110.316 28.7729 108.704 30.7061 105.159 30.7061C100.323 30.7061 97.7443 27.1611 97.7443 22.0039C97.7443 16.8467 100.323 13.3013 105.159 13.3013C108.382 13.3013 110.316 14.9116 110.96 17.1694L111.283 17.4922H113.877L114.2 17.1694C113.55 13.3013 110.326 10.3999 105.169 10.3999ZM28.763 33.2886H12.3228L12 32.9658V11.0435L12.3228 10.7227H28.763L29.0858 11.0454V15.2344L28.763 15.5571H18.1257L17.8029 15.8799V19.1021L18.1257 19.4248H28.1174L28.4402 19.748V23.9385L28.1174 24.2612H18.1257L17.8029 24.584V28.1294L18.1257 28.4521H28.763L29.0858 28.7749V32.9658L28.763 33.2886ZM51.3289 33.2886H48.4275L47.7819 32.9658L41.9789 25.228H41.6562L35.8533 32.9658L35.2096 33.2886H32.3082L31.9854 32.9658V28.7847L37.7882 21.6753V21.3521L32.3082 15.2344V11.0435L32.631 10.7227H35.5401L36.1838 11.0454L41.6562 17.813H41.9789L47.4532 11.0435L48.1047 10.7227H51.0061L51.3289 11.0454V15.2344L45.8469 21.3599V21.6753L51.6498 28.7847V32.9751L51.3289 33.2886ZM55.5234 33.2886H60.6749L61.0035 32.9658V11.0454L60.6826 10.7227H55.5234L55.2026 11.0435V32.9658L55.5234 33.2886ZM90.6539 33.2886H85.4986L85.1758 32.9658V22.6494H84.853L80.6622 32.9658L80.3394 33.2886H76.1467L75.8259 32.9658L71.6332 22.6494H71.3123V32.9658L70.9895 33.2886H65.8303L65.5152 32.9658V11.0435L65.8303 10.7227H71.956L72.2788 11.0454L78.0817 25.5527H78.4045L84.2073 11.0454L84.5378 10.7227H90.6635L90.9863 11.0454V32.9658L90.6539 33.2886ZM135.457 33.2886H132.88L132.558 32.9658V23.6157L132.235 23.2949H121.597L121.275 23.6157V32.9658L120.952 33.2886H118.373L118.05 32.9658V11.0435L118.373 10.7227H120.952L121.275 11.0454V20.0767L121.597 20.3994H132.235L132.558 20.0767V11.0454L132.88 10.7227H135.457L135.78 11.0454V32.9658L135.457 33.2886ZM155.767 33.2886H157.7L158.023 32.9639V30.7061L150.287 11.0454L149.964 10.7227H147.063L146.74 11.0435L139.002 30.7061V32.9658L139.325 33.2886H141.26L141.581 32.9658L143.516 28.1294L144.161 27.8066H152.875L153.519 28.1294L155.441 32.9658L155.767 33.2886ZM148.346 15.5571H148.669L152.214 24.5879L151.892 24.9092H145.122L144.799 24.5879L148.346 15.5571ZM164.145 33.2886H161.566L161.245 32.9658V11.0435L161.566 10.7227H164.145L164.471 11.0435V32.9658L164.145 33.2886ZM184.778 33.2886H187.677L188 32.9658V11.0454L187.677 10.7227H185.099L184.778 11.0435V27.8066H184.455L173.502 11.0435L172.849 10.7227H169.948L169.625 11.0435V32.9658L169.948 33.2886H172.526L172.849 32.9658V16.2026H173.18L184.132 32.9658L184.778 33.2886Z" fill="white"/>
</svg>
