<svg width="200" height="27" viewBox="0 0 200 27" fill="none" xmlns="http://www.w3.org/2000/svg">
<rect width="200" height="26.0465" fill="black" fill-opacity="0"/>
<path fill-rule="evenodd" clip-rule="evenodd" d="M105.874 0C98.1791 0 93.7837 5.42578 93.7837 13.0234C93.7837 20.6338 98.1682 26.0488 105.856 26.0464C112.09 26.0464 115.387 22.4302 116.119 18.0869L115.752 17.7266H112.822L112.455 18.0869C111.723 20.6206 109.891 22.79 105.863 22.79C100.367 22.79 97.4367 18.8115 97.4367 13.0234C97.4367 7.23535 100.367 3.25635 105.863 3.25635C109.525 3.25635 111.723 5.06348 112.455 7.59766L112.822 7.95996H115.769L116.136 7.59766C115.398 3.25635 111.734 0 105.874 0ZM19.0489 25.6885H0.366821L0 25.3262V0.722656L0.366821 0.362305H19.0489L19.4157 0.724609V5.42578L19.0489 5.78809H6.961L6.59418 6.15039V9.76709L6.961 10.1294H18.3152L18.6821 10.4917V15.1948L18.3152 15.5571H6.961L6.59418 15.9194V19.8984L6.961 20.2607H19.0489L19.4157 20.623V25.3262L19.0489 25.6885ZM44.692 25.6885H41.3949L40.6613 25.3262L34.0671 16.6421H33.7003L27.1061 25.3262L26.3746 25.6885H23.0775L22.7107 25.3262V20.6338L29.3049 12.6543V12.292L23.0775 5.42578V0.722656L23.4443 0.362305H26.7502L27.4816 0.724609L33.7003 8.31982H34.0671L40.2879 0.722656L41.0281 0.362305H44.3252L44.692 0.724609V5.42578L38.4625 12.3008V12.6543L45.0566 20.6338V25.3369L44.692 25.6885ZM49.4584 25.6885H55.3124L55.6857 25.3262V0.724609L55.3211 0.362305H49.4584L49.0938 0.722656V25.3262L49.4584 25.6885ZM89.3795 25.6885H83.5212L83.1544 25.3262V13.748H82.7875L78.0253 25.3262L77.6584 25.6885H72.894L72.5294 25.3262L67.765 13.748H67.4004V25.3262L67.0335 25.6885H61.1708L60.8127 25.3262V0.722656L61.1708 0.362305H68.1318L68.4987 0.724609L75.0928 17.0063H75.4597L82.0538 0.724609L82.4294 0.362305H89.3904L89.7573 0.724609V25.3262L89.3795 25.6885ZM140.292 25.6885H137.364L136.997 25.3262V14.8325L136.63 14.4727H124.542L124.176 14.8325V25.3262L123.809 25.6885H120.879L120.512 25.3262V0.722656L120.879 0.362305H123.809L124.176 0.724609V10.8604L124.542 11.2227H136.63L136.997 10.8604V0.724609L137.364 0.362305H140.292L140.659 0.724609V25.3262L140.292 25.6885ZM163.372 25.6885H165.568L165.935 25.3242V22.79L157.145 0.724609L156.778 0.362305H153.481L153.114 0.722656L144.321 22.79V25.3262L144.688 25.6885H146.886L147.251 25.3262L149.45 19.8984L150.183 19.5361H160.086L160.817 19.8984L163.001 25.3262L163.372 25.6885ZM154.939 5.78809H155.306L159.335 15.9238L158.968 16.2837H151.275L150.908 15.9238L154.939 5.78809ZM172.892 25.6885H169.962L169.597 25.3262V0.722656L169.962 0.362305H172.892L173.263 0.722656V25.3262L172.892 25.6885ZM196.338 25.6885H199.633L200 25.3262V0.724609L199.633 0.362305H196.703L196.338 0.722656V19.5361H195.971L183.525 0.722656L182.783 0.362305H179.486L179.119 0.722656V25.3262L179.486 25.6885H182.416L182.783 25.3262V6.5127H183.159L195.605 25.3262L196.338 25.6885Z" fill="#0667D0"/>
</svg>
