<svg width="200" height="27" viewBox="0 0 200 27" fill="none" xmlns="http://www.w3.org/2000/svg">
<rect width="200" height="26.3723" fill="black" fill-opacity="0"/>
<path fill-rule="evenodd" clip-rule="evenodd" d="M105.874 0C98.179 0 93.7836 5.49365 93.7836 13.186C93.7836 20.8916 98.168 26.3745 105.856 26.3726C112.09 26.3726 115.387 22.7104 116.119 18.313L115.752 17.9482H112.822L112.455 18.313C111.723 20.8784 109.891 23.0752 105.863 23.0752C100.367 23.0752 97.4366 19.0469 97.4366 13.186C97.4366 7.32568 100.367 3.29688 105.863 3.29688C109.524 3.29688 111.723 5.12695 112.455 7.69238L112.822 8.05908H115.769L116.136 7.69238C115.398 3.29688 111.734 0 105.874 0ZM19.0489 26.0098H0.366821L0 25.6431V0.731445L0.366821 0.366699H19.0489L19.4157 0.733398V5.49365L19.0489 5.86035H6.961L6.59418 6.22705V9.88916L6.961 10.2559H18.3152L18.6821 10.6226V15.3848L18.3152 15.7515H6.961L6.59418 16.1187V20.147L6.961 20.5137H19.0489L19.4157 20.8809V25.6431L19.0489 26.0098ZM44.6919 26.0098H41.3948L40.6611 25.6431L34.067 16.8501H33.7001L27.106 25.6431L26.3745 26.0098H23.0774L22.7106 25.6431V20.8916L29.3047 12.8125V12.4458L23.0774 5.49365V0.731445L23.4442 0.366699H26.7501L27.4815 0.733398L33.7001 8.42383H34.067L40.2878 0.731445L41.028 0.366699H44.3251L44.6919 0.733398V5.49365L38.4623 12.4546V12.8125L45.0565 20.8916V25.6538L44.6919 26.0098ZM49.4585 26.0098H55.3125L55.6859 25.6431V0.733398L55.3212 0.366699H49.4585L49.0939 0.731445V25.6431L49.4585 26.0098ZM89.3795 26.0098H83.5211L83.1543 25.6431V13.9199H82.7875L78.0252 25.6431L77.6584 26.0098H72.894L72.5294 25.6431L67.765 13.9199H67.4003V25.6431L67.0334 26.0098H61.1708L60.8127 25.6431V0.731445L61.1708 0.366699H68.1318L68.4986 0.733398L75.0928 17.2188H75.4596L82.0538 0.733398L82.4293 0.366699H89.3904L89.7572 0.733398V25.6431L89.3795 26.0098ZM140.292 26.0098H137.364L136.997 25.6431V15.0181L136.63 14.6533H124.543L124.176 15.0181V25.6431L123.809 26.0098H120.879L120.512 25.6431V0.731445L120.879 0.366699H123.809L124.176 0.733398V10.9961L124.543 11.3628H136.63L136.997 10.9961V0.733398L137.364 0.366699H140.292L140.659 0.733398V25.6431L140.292 26.0098ZM163.372 26.0098H165.568L165.935 25.6406V23.0752L157.144 0.733398L156.778 0.366699H153.48L153.114 0.731445L144.321 23.0752V25.6431L144.688 26.0098H146.886L147.251 25.6431L149.45 20.147L150.183 19.7803H160.086L160.817 20.147L163.001 25.6431L163.372 26.0098ZM154.939 5.86035H155.306L159.334 16.123L158.968 16.4873H151.275L150.908 16.123L154.939 5.86035ZM172.892 26.0098H169.962L169.597 25.6431V0.731445L169.962 0.366699H172.892L173.263 0.731445V25.6431L172.892 26.0098ZM196.338 26.0098H199.633L200 25.6431V0.733398L199.633 0.366699H196.703L196.338 0.731445V19.7803H195.971L183.525 0.731445L182.783 0.366699H179.486L179.119 0.731445V25.6431L179.486 26.0098H182.416L182.783 25.6431V6.59424H183.159L195.605 25.6431L196.338 26.0098Z" fill="white"/>
</svg>
