<svg width="139" height="149" viewBox="0 0 139 149" fill="none" xmlns="http://www.w3.org/2000/svg">
<rect width="139" height="149" fill="black" fill-opacity="0"/>
<rect width="139" height="149" fill="black" fill-opacity="0"/>
<path d="M86.905 14.7734C86.905 7.17567 80.7885 0.844213 72.9848 0.844213C65.392 0.844213 59.0647 6.96462 59.0647 14.7734C59.0647 22.5822 65.1811 28.7026 72.9848 28.7026C80.5776 28.7026 86.905 22.5822 86.905 14.7734Z" fill="#FFC951"/>
<path d="M35.2317 104.68C35.2317 97.0824 29.1153 90.751 21.3116 90.751C13.7188 90.751 7.39149 96.8714 7.39149 104.68C7.39149 112.278 13.5079 118.609 21.3116 118.609C29.1153 118.609 35.2317 112.489 35.2317 104.68Z" fill="#FFC951"/>
<path d="M139 104.68C139 97.0824 132.884 90.751 125.08 90.751C117.487 90.751 111.16 96.8714 111.16 104.68C111.16 112.278 117.276 118.609 125.08 118.609C132.673 118.609 139 112.489 139 104.68Z" fill="#FFC951"/>
<path d="M132.673 100.459C131.618 96.6601 129.298 93.4943 125.713 91.5949C119.174 87.796 110.738 89.6954 106.52 95.8158L69.6102 74.5L105.465 51.7069C107.363 55.0836 110.527 57.4051 114.323 58.4603C115.589 58.8824 116.854 58.8824 118.12 58.8824C119.596 58.8824 121.073 58.6714 122.338 58.2493C123.814 63.5255 124.658 68.8017 124.658 74.2889C124.658 76.6104 124.447 78.9321 124.236 81.2536C124.236 82.0978 124.658 82.942 125.502 82.942H125.713C126.556 82.942 127.189 82.3088 127.189 81.4646C127.4 78.932 127.611 76.6105 127.611 74.0779C127.611 68.1686 126.767 62.2592 125.08 56.7719H125.291C128.665 54.8725 130.985 51.7068 132.04 47.9079C133.094 44.109 132.462 40.0991 130.564 36.7224C128.665 33.3456 125.502 31.0241 121.705 29.9689C117.909 28.9136 113.902 29.5467 110.527 31.4462C110.527 31.4462 110.316 31.4462 110.316 31.6572C102.301 23.2153 92.1777 17.517 80.9994 14.7734V14.5623C80.9994 6.54248 74.4612 0 66.4466 0C58.432 0 51.8937 6.54248 51.8937 14.5623V14.7734C40.5045 17.517 30.1699 23.4264 22.1552 32.0793C22.1552 32.0793 21.9443 32.0793 21.9443 31.8683C14.9843 27.8584 5.91508 30.391 1.90777 37.3555C-2.09954 44.3201 0.431406 53.3951 7.39147 57.4051C9.71149 58.6713 12.2424 59.3045 14.5624 59.3045C19.2025 59.3045 23.8425 56.983 26.5844 52.9731L63.4938 74.2889L27.6389 97.0822C25.7407 93.7054 22.5771 91.3839 18.7807 90.3286C16.0388 89.6955 13.297 89.6954 10.766 90.5396C9.28965 85.2634 8.44603 79.9873 8.44603 74.5C8.44603 72.8116 8.44601 70.9122 8.65692 69.2238C8.65692 68.3796 8.02419 67.5355 7.18055 67.5355C6.3369 67.3244 5.49325 68.1685 5.49325 69.0127C5.28234 70.9121 5.28236 72.8116 5.28236 74.711C5.28236 80.6204 6.126 86.5297 7.81329 92.017C7.81329 92.017 7.60236 92.0169 7.60236 92.228C4.22779 94.1274 1.90777 97.2932 0.853215 101.092C-0.20134 104.891 0.431387 108.901 2.32959 112.278C5.07143 116.921 9.92239 119.453 14.9843 119.453C17.5152 119.453 20.0461 118.82 22.3661 117.554C22.3661 117.554 22.5771 117.554 22.5771 117.343C30.5917 125.785 40.7154 131.483 51.8937 134.227V134.438C51.8937 142.457 58.432 149 66.4466 149C74.4612 149 80.9994 142.457 80.9994 134.438V134.227C92.3886 131.483 102.723 125.574 110.738 116.921C110.738 116.921 110.949 116.921 110.949 117.132C113.269 118.398 115.589 119.031 118.12 119.031C119.385 119.031 120.651 118.82 121.916 118.609C125.713 117.554 128.876 115.232 130.774 111.644C133.094 108.057 133.727 104.258 132.673 100.459ZM118.331 32.9235C119.385 32.9235 120.229 33.1346 121.283 33.3456C124.236 34.1898 126.767 36.0893 128.244 38.6219C131.407 44.1091 129.509 51.0737 124.025 54.4505C121.283 55.9278 118.331 56.3498 115.378 55.7167C112.425 54.8725 109.894 52.9731 108.418 50.4405C106.941 47.6969 106.52 44.7422 107.152 41.7876C107.996 38.8329 109.894 36.3003 112.425 34.8229C114.323 33.5567 116.222 32.9235 118.331 32.9235ZM66.6575 3.37678C72.9848 3.37678 78.2576 8.44194 78.2576 14.9844C78.2576 21.3159 73.1957 26.5921 66.6575 26.5921C60.3301 26.5921 55.0574 21.5269 55.0574 14.9844C55.2683 8.44194 60.3301 3.37678 66.6575 3.37678ZM52.5264 18.3612C54.0028 24.2706 59.0647 28.9136 65.1811 29.5467V63.1034C65.1811 63.9476 65.8138 64.5807 66.6575 64.5807C67.5011 64.5807 68.1339 63.9476 68.1339 63.1034V29.5467C74.2503 28.9136 79.3122 24.2706 80.7885 18.3612C91.1232 20.8938 100.614 26.381 107.996 33.9788C106.098 35.8782 104.621 38.1997 103.989 40.9433C103.356 43.687 103.356 46.4306 104.2 49.1743L66.4466 73.0227L28.0608 50.8626C30.3808 45.1643 28.9044 38.6218 24.4753 34.6119C32.4899 26.381 41.9809 20.8938 52.5264 18.3612ZM9.07877 55.0836C3.59508 51.9179 1.69688 44.9533 4.86055 39.466C6.96966 35.6672 10.766 33.7677 14.7734 33.7677C16.6716 33.7677 18.5698 34.1898 20.468 35.2451C25.9516 38.4108 27.8498 45.3754 24.6862 50.8626C21.7334 56.1388 14.5625 58.2493 9.07877 55.0836ZM5.07144 110.589C3.59506 107.846 3.17326 104.891 3.80599 101.936C4.64963 98.9816 6.54783 96.4491 9.07877 94.9717C10.7661 93.9165 12.8752 93.4944 14.7734 93.4944C15.8279 93.4944 16.6715 93.7054 17.7261 93.9165C20.6789 94.7607 23.2098 96.6601 24.6862 99.1927C27.8498 104.68 25.9516 111.645 20.468 115.021C15.4061 117.976 8.2351 116.076 5.07144 110.589ZM66.6575 145.834C60.3301 145.834 55.0574 140.769 55.0574 134.227C55.0574 127.895 60.1192 122.619 66.6575 122.619C72.9848 122.619 78.2576 127.684 78.2576 134.227C78.2576 140.769 72.9848 145.834 66.6575 145.834ZM80.9994 131.061C79.5231 124.518 73.6175 119.875 66.8684 119.875C59.9083 119.875 54.2137 124.729 52.7374 131.061C42.4027 128.528 32.9117 123.041 25.5298 115.443C29.5371 111.644 31.0135 105.735 29.3262 100.459L65.392 77.6658V109.762C65.392 110.607 66.0247 111.24 66.8684 111.24C67.712 111.24 68.3448 110.607 68.3448 109.762V77.4546L105.254 98.7706C103.989 101.725 103.778 105.102 104.621 108.268C105.254 111.011 106.731 113.333 108.84 115.021C101.036 122.83 91.545 128.317 80.9994 131.061ZM128.454 109.956C126.978 112.7 124.447 114.599 121.494 115.443C118.542 116.287 115.378 115.865 112.847 114.388C110.105 112.911 108.207 110.378 107.363 107.423C106.52 104.469 106.941 101.303 108.418 98.7706C110.527 94.9717 114.323 93.0723 118.331 93.0723C120.229 93.0723 122.127 93.4944 124.025 94.5496C126.767 96.0269 128.665 98.5595 129.509 101.514C130.353 104.258 130.142 107.424 128.454 109.956Z" fill="#4B4E56"/>
<ellipse cx="66.3623" cy="73.0885" rx="38.4368" ry="38.5832" fill="white"/>
<rect width="120.417" height="137.543" fill="black" fill-opacity="0" transform="translate(6.27539 4.70557)"/>
<rect width="16.5588" height="18.3432" fill="black" fill-opacity="0" transform="translate(58.3612 4.70557)"/>
<path d="M71.2693 8.15308C71.2693 5.94148 69.7698 5.29101 67.8793 5.29101C65.9887 5.29101 64.4893 5.87643 64.4893 8.15308C64.4893 10.3647 65.9887 13.3568 67.8793 13.3568C69.7047 13.4219 71.2693 10.3647 71.2693 8.15308Z" fill="#F7CA66"/>
<path d="M70.6825 15.373H65.076C62.7291 15.373 60.8385 17.2594 60.8385 19.6011V22.5282H74.92V19.6011C74.92 17.2594 73.0295 15.373 70.6825 15.373Z" fill="#F7CA66"/>
<path d="M65.7931 13.9423C67.9444 13.9423 69.5742 11.0151 69.5742 8.47829C69.5742 6.78706 68.792 5.87642 68.2052 5.42109C67.5533 4.96576 66.771 4.70557 65.7931 4.70557C64.8804 4.70557 64.0329 4.96576 63.4462 5.48614C62.6639 6.13661 62.2075 7.17735 62.2075 8.54334C62.2075 11.0802 63.7721 13.9423 65.7931 13.9423ZM64.0329 6.26669C64.4892 5.94146 65.076 5.74632 65.7931 5.74632C66.5102 5.74632 67.0969 5.94146 67.6185 6.26669C68.2704 6.72202 68.5964 7.50259 68.5964 8.54334C68.5964 10.6899 67.1621 13.0316 65.7931 13.0316C64.3589 13.0316 63.1854 10.5598 63.1854 8.54334C63.1854 7.50259 63.4462 6.72202 64.0329 6.26669Z" fill="#4B4E56"/>
<path d="M72.9643 23.049C73.2251 23.049 73.4858 22.8538 73.4858 22.5286V19.7966C73.4858 17.0646 71.2693 14.853 68.5312 14.853H65.9235H63.3158C60.5778 14.853 58.3612 17.0646 58.3612 19.7966V22.5286C58.3612 22.7888 58.5568 23.049 58.8827 23.049C59.1435 23.049 59.4043 22.8538 59.4043 22.5286V19.7966C59.4043 17.585 61.1645 15.8287 63.381 15.8287H65.9887H68.5964C70.8129 15.8287 72.5731 17.585 72.5731 19.7966V22.5286C72.4428 22.8538 72.7035 23.049 72.9643 23.049Z" fill="#4B4E56"/>
<rect width="16.5588" height="18.3432" fill="black" fill-opacity="0" transform="translate(110.133 34.5059)"/>
<path d="M123.041 37.9534C123.041 35.7418 121.542 35.0913 119.651 35.0913C117.761 35.0913 116.261 35.6767 116.261 37.9534C116.261 40.165 117.761 43.1571 119.651 43.1571C121.477 43.2222 123.041 40.165 123.041 37.9534Z" fill="#F7CA66"/>
<path d="M122.454 45.1733H116.848C114.501 45.1733 112.61 47.0597 112.61 49.4014V52.3285H126.692V49.4014C126.692 47.0597 124.801 45.1733 122.454 45.1733Z" fill="#F7CA66"/>
<path d="M117.565 43.7426C119.716 43.7426 121.346 40.8154 121.346 38.2786C121.346 36.5874 120.564 35.6767 119.977 35.2214C119.325 34.7661 118.543 34.5059 117.565 34.5059C116.652 34.5059 115.805 34.7661 115.218 35.2864C114.436 35.9369 113.979 36.9776 113.979 38.3436C113.979 40.8805 115.544 43.7426 117.565 43.7426ZM115.805 36.067C116.261 35.7417 116.848 35.5466 117.565 35.5466C118.282 35.5466 118.869 35.7417 119.39 36.067C120.042 36.5223 120.368 37.3029 120.368 38.3436C120.368 40.4902 118.934 42.8319 117.565 42.8319C116.131 42.8319 114.957 40.3601 114.957 38.3436C114.957 37.3029 115.218 36.5223 115.805 36.067Z" fill="#4B4E56"/>
<path d="M124.736 52.8493C124.997 52.8493 125.258 52.6541 125.258 52.3289V49.5969C125.258 46.8649 123.041 44.6533 120.303 44.6533H117.695H115.088C112.35 44.6533 110.133 46.8649 110.133 49.5969V52.3289C110.133 52.5891 110.329 52.8493 110.655 52.8493C110.915 52.8493 111.176 52.6541 111.176 52.3289V49.5969C111.176 47.3853 112.936 45.629 115.153 45.629H117.761H120.368C122.585 45.629 124.345 47.3853 124.345 49.5969V52.3289C124.215 52.6541 124.475 52.8493 124.736 52.8493Z" fill="#4B4E56"/>
<rect width="16.5588" height="18.3432" fill="black" fill-opacity="0" transform="translate(109.819 95.6738)"/>
<path d="M122.728 99.1213C122.728 96.9097 121.228 96.2593 119.338 96.2593C117.447 96.2593 115.948 96.8447 115.948 99.1213C115.948 101.333 117.447 104.325 119.338 104.325C121.163 104.39 122.728 101.333 122.728 99.1213Z" fill="#F7CA66"/>
<path d="M122.141 106.341H116.534C114.187 106.341 112.297 108.228 112.297 110.569V113.496H126.378V110.569C126.378 108.228 124.488 106.341 122.141 106.341Z" fill="#F7CA66"/>
<path d="M117.251 104.911C119.403 104.911 121.032 101.983 121.032 99.4466C121.032 97.7553 120.25 96.8447 119.663 96.3893C119.012 95.934 118.229 95.6738 117.251 95.6738C116.339 95.6738 115.491 95.934 114.904 96.4544C114.122 97.1049 113.666 98.1456 113.666 99.5116C113.666 102.048 115.23 104.911 117.251 104.911ZM115.491 97.235C115.947 96.9097 116.534 96.7146 117.251 96.7146C117.968 96.7146 118.555 96.9097 119.077 97.235C119.729 97.6903 120.055 98.4708 120.055 99.5116C120.055 101.658 118.62 104 117.251 104C115.817 104 114.644 101.528 114.644 99.5116C114.644 98.4708 114.904 97.6903 115.491 97.235Z" fill="#4B4E56"/>
<path d="M124.423 114.017C124.683 114.017 124.944 113.822 124.944 113.497V110.765C124.944 108.033 122.728 105.821 119.989 105.821H117.382H114.774C112.036 105.821 109.819 108.033 109.819 110.765V113.497C109.819 113.757 110.015 114.017 110.341 114.017C110.602 114.017 110.863 113.822 110.863 113.497V110.765C110.863 108.553 112.623 106.797 114.839 106.797H117.447H120.055C122.271 106.797 124.031 108.553 124.031 110.765V113.497C123.901 113.822 124.162 114.017 124.423 114.017Z" fill="#4B4E56"/>
<rect width="16.5588" height="18.3432" fill="black" fill-opacity="0" transform="translate(58.3612 123.905)"/>
<path d="M71.2694 127.353C71.2694 125.141 69.77 124.491 67.8794 124.491C65.9888 124.491 64.4894 125.076 64.4894 127.353C64.4894 129.564 65.9888 132.557 67.8794 132.557C69.7048 132.622 71.2694 129.564 71.2694 127.353Z" fill="#F7CA66"/>
<path d="M70.6827 134.573H65.0761C62.7292 134.573 60.8386 136.459 60.8386 138.801V141.728H74.9202V138.801C74.9202 136.459 73.0296 134.573 70.6827 134.573Z" fill="#F7CA66"/>
<path d="M65.7932 133.142C67.9446 133.142 69.5744 130.215 69.5744 127.678C69.5744 125.987 68.7921 125.076 68.2053 124.621C67.5534 124.165 66.7711 123.905 65.7932 123.905C64.8805 123.905 64.033 124.165 63.4463 124.686C62.664 125.336 62.2076 126.377 62.2076 127.743C62.2076 130.28 63.7723 133.142 65.7932 133.142ZM64.033 125.466C64.4894 125.141 65.0761 124.946 65.7932 124.946C66.5103 124.946 67.0971 125.141 67.6186 125.466C68.2705 125.922 68.5965 126.702 68.5965 127.743C68.5965 129.89 67.1623 132.231 65.7932 132.231C64.359 132.231 63.1855 129.76 63.1855 127.743C63.1855 126.702 63.4463 125.922 64.033 125.466Z" fill="#4B4E56"/>
<path d="M72.9644 142.249C73.2252 142.249 73.4859 142.054 73.4859 141.728V138.996C73.4859 136.264 71.2694 134.053 68.5313 134.053H65.9236H63.316C60.5779 134.053 58.3613 136.264 58.3613 138.996V141.728C58.3613 141.988 58.5569 142.249 58.8829 142.249C59.1436 142.249 59.4044 142.054 59.4044 141.728V138.996C59.4044 136.785 61.1646 135.028 63.3811 135.028H65.9888H68.5965C70.8131 135.028 72.5733 136.785 72.5733 138.996V141.728C72.4429 142.054 72.7036 142.249 72.9644 142.249Z" fill="#4B4E56"/>
<rect width="16.5588" height="18.3432" fill="black" fill-opacity="0" transform="translate(6.27539 95.3599)"/>
<path d="M19.1835 98.8074C19.1835 96.5958 17.684 95.9453 15.7935 95.9453C13.9029 95.9453 12.4034 96.5307 12.4034 98.8074C12.4034 101.019 13.9029 104.011 15.7935 104.011C17.6188 104.076 19.1835 101.019 19.1835 98.8074Z" fill="#F7CA66"/>
<path d="M18.5967 106.027H12.9902C10.6433 106.027 8.75268 107.914 8.75268 110.255V113.183H22.8342V110.255C22.8342 107.914 20.9437 106.027 18.5967 106.027Z" fill="#F7CA66"/>
<path d="M13.7073 104.597C15.8586 104.597 17.4884 101.669 17.4884 99.1326C17.4884 97.4414 16.7061 96.5307 16.1194 96.0754C15.4675 95.6201 14.6852 95.3599 13.7073 95.3599C12.7946 95.3599 11.9471 95.6201 11.3604 96.1404C10.578 96.7909 10.1217 97.8316 10.1217 99.1976C10.1217 101.734 11.6863 104.597 13.7073 104.597ZM11.9471 96.921C12.4034 96.5958 12.9902 96.4006 13.7073 96.4006C14.4244 96.4006 15.0111 96.5958 15.5327 96.921C16.1846 97.3763 16.5105 98.1569 16.5105 99.1976C16.5105 101.344 15.0763 103.686 13.7073 103.686C12.2731 103.686 11.0996 101.214 11.0996 99.1976C11.0996 98.1569 11.3604 97.3763 11.9471 96.921Z" fill="#4B4E56"/>
<path d="M20.8785 113.703C21.1392 113.703 21.4 113.508 21.4 113.183V110.451C21.4 107.719 19.1835 105.507 16.4454 105.507H13.8377H11.23C8.49194 105.507 6.27539 107.719 6.27539 110.451V113.183C6.27539 113.443 6.47096 113.703 6.79693 113.703C7.05769 113.703 7.31848 113.508 7.31848 113.183V110.451C7.31848 108.239 9.07865 106.483 11.2952 106.483H13.9029H16.5106C18.7271 106.483 20.4873 108.239 20.4873 110.451V113.183C20.3569 113.508 20.6177 113.703 20.8785 113.703Z" fill="#4B4E56"/>
<rect width="16.5588" height="18.3432" fill="black" fill-opacity="0" transform="translate(6.27539 35.1323)"/>
<path d="M19.1835 38.5798C19.1835 36.3682 17.684 35.7178 15.7935 35.7178C13.9029 35.7178 12.4034 36.3032 12.4034 38.5798C12.4034 40.7914 13.9029 43.7836 15.7935 43.7836C17.6188 43.8486 19.1835 40.7914 19.1835 38.5798Z" fill="#F7CA66"/>
<path d="M18.5967 45.7998H12.9902C10.6433 45.7998 8.75268 47.6862 8.75268 50.0279V52.955H22.8342V50.0279C22.8342 47.6862 20.9437 45.7998 18.5967 45.7998Z" fill="#F7CA66"/>
<path d="M13.7073 44.369C15.8586 44.369 17.4884 41.4419 17.4884 38.905C17.4884 37.2138 16.7061 36.3032 16.1194 35.8478C15.4675 35.3925 14.6852 35.1323 13.7073 35.1323C12.7946 35.1323 11.9471 35.3925 11.3604 35.9129C10.578 36.5634 10.1217 37.6041 10.1217 38.9701C10.1217 41.5069 11.6863 44.369 13.7073 44.369ZM11.9471 36.6934C12.4034 36.3682 12.9902 36.1731 13.7073 36.1731C14.4244 36.1731 15.0111 36.3682 15.5327 36.6934C16.1846 37.1488 16.5105 37.9293 16.5105 38.9701C16.5105 41.1167 15.0763 43.4583 13.7073 43.4583C12.2731 43.4583 11.0996 40.9866 11.0996 38.9701C11.0996 37.9293 11.3604 37.1488 11.9471 36.6934Z" fill="#4B4E56"/>
<path d="M20.8785 53.4757C21.1392 53.4757 21.4 53.2806 21.4 52.9553V50.2234C21.4 47.4914 19.1835 45.2798 16.4454 45.2798H13.8377H11.23C8.49194 45.2798 6.27539 47.4914 6.27539 50.2234V52.9553C6.27539 53.2155 6.47096 53.4757 6.79693 53.4757C7.05769 53.4757 7.31848 53.2806 7.31848 52.9553V50.2234C7.31848 48.0118 9.07865 46.2555 11.2952 46.2555H13.9029H16.5106C18.7271 46.2555 20.4873 48.0118 20.4873 50.2234V52.9553C20.3569 53.2806 20.6177 53.4757 20.8785 53.4757Z" fill="#4B4E56"/>
<rect width="53.2836" height="51.6196" fill="black" fill-opacity="0" transform="translate(39.8488 43.6021)"/>
<rect width="53.2836" height="51.6196" fill="black" fill-opacity="0" transform="translate(39.8488 43.6021)"/>
<rect width="50.2506" height="4.41403" fill="black" fill-opacity="0" transform="translate(42.8817 64.9771)"/>
<path d="M93.1323 64.977H42.8817V69.3911H93.1323V64.977Z" fill="#FFC951"/>
<rect width="50.2506" height="4.41403" fill="black" fill-opacity="0" transform="translate(42.8817 89.7446)"/>
<path d="M93.1323 89.7446H42.8817V94.1587H93.1323V89.7446Z" fill="#FFC951"/>
<rect width="51.4802" height="51.6196" fill="black" fill-opacity="0" transform="translate(39.8488 43.6021)"/>
<path d="M91.247 64.8957C91.247 64.8139 91.247 64.8139 91.247 64.7322V64.6504C91.247 64.6504 91.247 64.5687 91.165 64.5687L91.0831 64.4869L65.9987 43.7247C65.7528 43.5612 65.4249 43.5612 65.179 43.7247L40.0127 64.4869L39.9307 64.5687L39.8488 64.6504V64.7322C39.8488 64.8139 39.8488 64.8139 39.8488 64.8957V69.8001C39.8488 70.1271 40.0947 70.4541 40.5046 70.4541H46.8166V89.3363H40.5046C40.1767 89.3363 39.8488 89.5815 39.8488 89.9902V94.0773C39.8488 94.159 39.8487 94.2408 39.9307 94.3225C39.9307 94.4043 39.8488 94.486 39.8488 94.5677C39.8488 94.8947 40.0947 95.2217 40.5046 95.2217H90.2633C90.5912 95.2217 90.9191 94.9764 90.9191 94.5677V89.9902C90.9191 89.6632 90.6732 89.3363 90.2633 89.3363H84.3611V70.4541H90.6732C91.0011 70.4541 91.329 70.2088 91.329 69.8001L91.247 64.8957ZM40.9964 69.2279V65.5496H45.0951H90.0174V69.2279H40.9964ZM89.6075 90.4807V93.8321H41.0784V90.4807H89.6075ZM63.3755 89.2545V70.3723H67.9661V89.2545H63.3755ZM65.5069 45.0325L88.9517 64.4052H45.0951H42.1441L65.5069 45.0325ZM47.9643 70.4541H62.1459V89.3363H53.7025V72.6611C53.7025 72.3341 53.4566 72.0071 53.0467 72.0071C52.7188 72.0071 52.3909 72.2524 52.3909 72.6611V89.3363H47.8003V70.4541H47.9643ZM83.1315 89.2545H69.1958V70.3723H77.3113V87.0475C77.3113 87.3745 77.5572 87.7015 77.9671 87.7015C78.295 87.7015 78.6229 87.4562 78.6229 87.0475V70.3723H83.2135V89.2545H83.1315Z" fill="#13182B"/>
<rect width="50.2506" height="4.41403" fill="black" fill-opacity="0" transform="translate(42.8817 64.9771)"/>
<path d="M93.1323 64.977H42.8817V69.3911H93.1323V64.977Z" fill="#FFC951"/>
<rect width="50.2506" height="4.41403" fill="black" fill-opacity="0" transform="translate(42.8817 89.7446)"/>
<path d="M93.1323 89.7446H42.8817V94.1587H93.1323V89.7446Z" fill="#FFC951"/>
<rect width="51.4802" height="51.6196" fill="black" fill-opacity="0" transform="translate(39.8488 43.6021)"/>
<path d="M91.247 64.8957C91.247 64.8139 91.247 64.8139 91.247 64.7322V64.6504C91.247 64.6504 91.247 64.5687 91.165 64.5687L91.0831 64.4869L65.9987 43.7247C65.7528 43.5612 65.4249 43.5612 65.179 43.7247L40.0127 64.4869L39.9307 64.5687L39.8488 64.6504V64.7322C39.8488 64.8139 39.8488 64.8139 39.8488 64.8957V69.8001C39.8488 70.1271 40.0947 70.4541 40.5046 70.4541H46.8166V89.3363H40.5046C40.1767 89.3363 39.8488 89.5815 39.8488 89.9902V94.0773C39.8488 94.159 39.8487 94.2408 39.9307 94.3225C39.9307 94.4043 39.8488 94.486 39.8488 94.5677C39.8488 94.8947 40.0947 95.2217 40.5046 95.2217H90.2633C90.5912 95.2217 90.9191 94.9764 90.9191 94.5677V89.9902C90.9191 89.6632 90.6732 89.3363 90.2633 89.3363H84.3611V70.4541H90.6732C91.0011 70.4541 91.329 70.2088 91.329 69.8001L91.247 64.8957ZM40.9964 69.2279V65.5496H45.0951H90.0174V69.2279H40.9964ZM89.6075 90.4807V93.8321H41.0784V90.4807H89.6075ZM63.3755 89.2545V70.3723H67.9661V89.2545H63.3755ZM65.5069 45.0325L88.9517 64.4052H45.0951H42.1441L65.5069 45.0325ZM47.9643 70.4541H62.1459V89.3363H53.7025V72.6611C53.7025 72.3341 53.4566 72.0071 53.0467 72.0071C52.7188 72.0071 52.3909 72.2524 52.3909 72.6611V89.3363H47.8003V70.4541H47.9643ZM83.1315 89.2545H69.1958V70.3723H77.3113V87.0475C77.3113 87.3745 77.5572 87.7015 77.9671 87.7015C78.295 87.7015 78.6229 87.4562 78.6229 87.0475V70.3723H83.2135V89.2545H83.1315Z" fill="#4B4E56"/>
<rect width="17.2573" height="11.9199" fill="black" fill-opacity="0" transform="translate(56.981 50.9609)"/>
<rect width="17.2573" height="10.7143" fill="black" fill-opacity="0" transform="translate(56.981 52.1665)"/>
<path d="M69.177 53.6655L71.1623 52.3428L74.2383 57.722L72.1876 58.9565L69.177 53.6655Z" fill="#FFC951"/>
<path d="M62.894 53.6655L60.9087 52.3428L57.8326 57.722L59.8833 58.9565L62.894 53.6655Z" fill="#FFC951"/>
<path d="M68.7625 58.714C68.4134 58.4494 68.1298 58.2069 67.868 57.9865C67.4099 57.6117 66.9736 57.2589 66.3845 56.8401C66.3191 56.796 66.21 56.796 66.1664 56.8842C66.1227 56.9503 66.1227 57.0605 66.21 57.1046C66.799 57.5455 67.2135 57.8762 67.6717 58.251C67.9553 58.4715 68.2389 58.714 68.588 58.9785C68.8716 59.199 69.0025 59.4635 68.9588 59.706C68.937 59.8604 68.8279 59.9926 68.697 60.0588C68.5007 60.147 68.2389 60.0808 67.9989 59.8824C66.8209 58.9565 65.5773 57.9424 65.5773 57.9424C65.5119 57.8762 65.4028 57.8983 65.3374 57.9644C65.2719 58.0306 65.2937 58.1408 65.3592 58.2069L67.4099 59.9045C67.6499 60.1029 67.7589 60.3233 67.7371 60.5438C67.7153 60.7201 67.6062 60.8524 67.4535 60.9186C67.279 60.9847 67.0826 60.9406 66.8863 60.7863L66.6027 60.5438C66.5809 60.5217 66.5372 60.4997 66.5154 60.4556L64.8138 59.0447C64.7483 58.9785 64.6393 59.0006 64.5738 59.0667C64.5084 59.1328 64.5302 59.2431 64.5956 59.3092L66.2973 60.7201L66.3845 60.7863C66.5372 60.9406 66.6245 61.117 66.6027 61.2933C66.5809 61.4697 66.4718 61.602 66.3191 61.6681C66.1446 61.7343 65.9482 61.6902 65.7519 61.5358L63.8975 60.0588C63.8321 59.9926 63.723 60.0147 63.6575 60.0808C63.5921 60.147 63.6139 60.2572 63.6794 60.3233L65.2283 61.5579C65.4464 61.7122 65.5555 61.9327 65.5337 62.1531C65.5119 62.3074 65.4246 62.4397 65.2719 62.5059C65.0974 62.572 64.901 62.5279 64.6829 62.3515C64.3338 62.087 63.5921 61.4918 63.5921 61.4918C63.5921 61.4918 61.2796 59.5738 59.7743 58.3392L61.9123 54.5473L63.0467 55.0985C63.0685 55.1205 63.0903 55.1205 63.1121 55.1205C63.1776 55.1205 63.2212 55.0764 63.2648 55.0323C63.3085 54.9441 63.2648 54.856 63.1994 54.8119L62.0868 54.2607L62.3704 53.7537C62.414 53.6655 62.3922 53.5773 62.3049 53.5332L60.3197 52.2325C60.2761 52.2104 60.2324 52.2104 60.1888 52.2104C60.1452 52.2104 60.1015 52.2545 60.0797 52.2986L57.0037 57.6778C56.96 57.744 56.9818 57.8542 57.0473 57.8983L58.0945 58.5817C58.1163 58.6037 58.1599 58.6037 58.1817 58.6037C58.2254 58.6037 58.2908 58.5817 58.3126 58.5376C58.3562 58.4715 58.3344 58.3612 58.269 58.3171L57.3527 57.7219L60.2542 52.6293L61.9777 53.7537L59.4034 58.2951C59.3816 58.3171 59.3816 58.3612 59.3816 58.3833C59.3816 58.4274 59.4034 58.4935 59.447 58.5376C60.9524 59.7722 63.3521 61.7784 63.3521 61.7784C63.3521 61.7784 64.0939 62.3736 64.4429 62.6381C64.6829 62.8366 64.901 62.8806 65.0756 62.8806C65.1847 62.8806 65.2937 62.8586 65.3592 62.8365C65.5992 62.7263 65.7737 62.5059 65.8173 62.2193C65.8173 62.1531 65.8173 62.0649 65.8173 61.9988C66.0137 62.0649 66.21 62.087 66.4064 61.9988C66.6681 61.8886 66.8427 61.6461 66.8863 61.3595C66.8863 61.3154 66.8863 61.2713 66.8863 61.2272C67.1045 61.3374 67.3226 61.3374 67.5408 61.2492C67.8026 61.139 67.9989 60.8965 68.0207 60.632C68.0426 60.5438 68.0426 60.4556 68.0207 60.3454C68.2825 60.4776 68.5443 60.4997 68.7625 60.3895C69.0243 60.2792 69.1988 60.0588 69.2206 59.7722C69.3297 59.3754 69.1333 59.0006 68.7625 58.714Z" fill="#4B4E56"/>
<path d="M73.7147 57.6339L70.6386 52.2547C70.6168 52.2106 70.5732 52.1886 70.5295 52.1665C70.4859 52.1665 70.4423 52.1665 70.3986 52.1886L68.4134 53.5113L68.3916 53.5333L68.3698 53.5554C68.3698 53.5554 68.3698 53.5774 68.3479 53.5774C68.3479 53.5774 68.3479 53.5995 68.3261 53.5995V53.6215V53.6436V53.6656V53.6877L68.697 54.349L66.2972 54.7018L63.8975 55.0766C63.8538 55.0766 63.8102 55.0986 63.7666 55.1427L62.9812 56.2229C62.6103 56.5977 62.5885 57.215 62.9158 57.6339C63.0903 57.8323 63.3303 57.9646 63.5702 57.9646C63.5921 57.9646 63.5921 57.9646 63.6139 57.9646C63.8538 57.9646 64.072 57.8764 64.2684 57.678L65.0974 56.6198L65.5119 56.5095C65.5991 56.4875 65.6428 56.3993 65.6209 56.3111C65.5991 56.2229 65.5119 56.1788 65.4246 56.2009L64.9665 56.3332C64.9665 56.3332 64.9665 56.3332 64.9446 56.3332C64.9446 56.3332 64.9228 56.3332 64.9228 56.3552L64.901 56.3773C64.901 56.3773 64.901 56.3773 64.8792 56.3993L64.0284 57.5016C63.8975 57.6118 63.7448 57.678 63.5921 57.678C63.4175 57.678 63.2648 57.5898 63.1557 57.4575C62.9158 57.1709 62.9376 56.752 63.1994 56.4875L63.2212 56.4654L63.9629 55.4293L66.3191 55.0766L68.8497 54.7238L71.0095 58.5378L69.7878 59.2873C69.7005 59.3314 69.6787 59.4416 69.7224 59.5078C69.7442 59.5519 69.8096 59.596 69.8532 59.596C69.8751 59.596 69.9187 59.596 69.9405 59.5739L71.1622 58.8243L71.3149 59.0669C71.3149 59.0889 71.3367 59.0889 71.3586 59.1109L71.3804 59.133C71.4022 59.155 71.424 59.155 71.4676 59.155C71.4894 59.155 71.5113 59.155 71.5549 59.133L73.5838 57.8984C73.7365 57.8102 73.7583 57.7221 73.7147 57.6339ZM71.5985 58.7362L68.7406 53.7097L70.4423 52.5854L73.3656 57.6559L71.5985 58.7362Z" fill="#4B4E56"/>
</svg>
