<svg width="28" height="28" viewBox="0 0 28 28" fill="none" xmlns="http://www.w3.org/2000/svg">
<mask id="mask0" mask-type="alpha" maskUnits="userSpaceOnUse" x="0" y="0" width="28" height="28">
<rect width="28" height="28" fill="#0667D0"/>
</mask>
<g mask="url(#mask0)">
<path fill-rule="evenodd" clip-rule="evenodd" d="M8.37077 12.6857L9.76731 15.1047L19.0863 9.72235L19.4341 9.81658L18.8062 14.0173L18.7141 14.3654L17.713 14.947L12.3063 18.0656L11.6841 18.4245L7.72605 20.7097L1.715 24.1804L1.36729 24.0861L1.99515 19.8859L2.0872 19.5373L5.20701 17.7355L5.80924 17.3898L2.5084 11.6725L2.60136 11.3259L20.1773 1.1784L20.5263 1.2702L19.8833 5.45281L19.7965 5.79608L8.46372 12.339L8.37077 12.6857ZM8.57951 22.1877L11.1408 26.6242L11.4877 26.7175L25.8999 18.3962L25.9986 18.0461L26.6748 13.8444L26.3308 13.7497L13.5414 21.1335L13.1946 21.0407L12.5375 19.9025L8.57951 22.1877Z" fill="white"/>
</g>
</svg>
