<?xml version="1.0" standalone="no"?>
<!DOCTYPE svg PUBLIC "-//W3C//DTD SVG 1.1//EN" "http://www.w3.org/Graphics/SVG/1.1/DTD/svg11.dtd" >
<svg xmlns="http://www.w3.org/2000/svg">
<metadata>Generated by IcoMoon</metadata>
<defs>
<font id="exim" horiz-adv-x="1024">
<font-face units-per-em="1024" ascent="960" descent="-64" />
<missing-glyph horiz-adv-x="1024" />
<glyph unicode="&#x20;" horiz-adv-x="512" d="" />
<glyph unicode="&#xe900;" glyph-name="add" d="M810.667 448c0-23.564-19.102-42.667-42.667-42.667h-213.333v-213.333c0-23.565-19.103-42.667-42.667-42.667s-42.667 19.102-42.667 42.667v213.333h-213.333c-23.564 0-42.667 19.103-42.667 42.667s19.103 42.667 42.667 42.667h213.333v213.333c0 23.564 19.103 42.667 42.667 42.667s42.667-19.103 42.667-42.667v-213.333h213.333c23.565 0 42.667-19.103 42.667-42.667z" />
<glyph unicode="&#xe902;" glyph-name="blockmaker" d="M286.459 614.857l223.28 131.959h4.522l223.279-131.959-225.54-133.081-225.541 133.081zM487.691 173.497l-222.397 131.441-2.565 4.66v263.014l224.963-132.739v-266.377zM761.271 572.612v-263.808l-2.556-4.64-222.407-130.748v266.458l224.963 132.739zM491.545 113.676c12.642-7.457 28.268-7.457 40.91 0l258.034 152.211c12.599 7.43 20.177 21.027 20.177 35.544v304.423c0 14.515-7.578 28.113-20.177 35.541l-258.034 152.213c-12.642 7.458-28.268 7.458-40.91 0l-258.036-152.213c-12.597-7.428-20.175-21.026-20.175-35.541v-304.423c0-14.517 7.579-28.113 20.175-35.544l258.036-152.211z" />
<glyph unicode="&#xe903;" glyph-name="chevron-left" d="M627.462 613.744c16.591 16.627 16.576 43.551-0.033 60.16-16.622 16.622-43.571 16.622-60.192 0l-195.734-195.734c-16.662-16.663-16.662-43.677 0-60.34l195.734-195.733c16.622-16.623 43.571-16.623 60.192 0 16.609 16.61 16.624 43.533 0.033 60.159l-165.382 165.744 165.382 165.744z" />
<glyph unicode="&#xe904;" glyph-name="close" d="M780.587 656.427c16.614 16.613 16.614 43.547 0 60.16s-43.546 16.613-60.16 0l-208.427-208.427-208.427 208.427c-16.613 16.613-43.547 16.613-60.16 0s-16.613-43.547 0-60.16l208.427-208.427-208.427-208.427c-16.613-16.614-16.613-43.546 0-60.16s43.547-16.614 60.16 0l208.427 208.427 208.427-208.427c16.614-16.614 43.546-16.614 60.16 0s16.614 43.546 0 60.16l-208.427 208.427 208.427 208.427z" />
<glyph unicode="&#xe905;" glyph-name="cycle" d="M693.018 629.021l-90.51-90.51h241.359v241.359l-90.51-90.51c-133.351 133.351-349.367 133.351-482.718 0-47.367-47.367-77.537-105.293-91.113-165.934h88.096c11.465 38.617 32.885 75.123 63.357 105.595 99.862 99.862 262.176 99.862 362.039 0zM844.471 372.577h-88.096c-12.068-38.617-32.885-75.123-63.357-105.595-99.862-99.862-262.176-99.862-362.039 0l90.51 90.51h-241.359v-241.359l90.51 90.51c133.351-133.351 349.367-133.351 482.718 0 47.367 47.367 77.537 105.293 91.113 165.934z" />
<glyph unicode="&#xe906;" glyph-name="demotion" d="M563.395 331.127l-247.051 247.049c-17.928 17.929-17.949 47.138 0.052 65.139 17.965 17.967 47.165 18.027 65.138 0.055l247.488-247.489v104.273c0 25.45 20.604 46.091 46.020 46.091 25.37 0 46.025-20.635 46.025-46.091v-223.933c0-20.593-16.713-37.288-37.367-37.288h-223.433c-25.409 0-46.016 20.638-46.016 46.097 0 25.407 20.602 46.097 46.016 46.097h103.128zM138.667 224.079c0-41.281 33.411-74.746 74.667-74.746h597.333c41.237 0 74.667 33.395 74.667 74.746v447.84c0 41.284-33.412 74.748-74.667 74.748h-597.333c-41.237 0-74.667-33.395-74.667-74.748v-447.84z" />
<glyph unicode="&#xe907;" glyph-name="filter" d="M436.148 244.148c0-20.946 16.98-37.927 37.926-37.927h75.852c20.946 0 37.926 16.981 37.926 37.927s-16.98 37.926-37.926 37.926h-75.852c-20.946 0-37.926-16.98-37.926-37.926zM208.593 661.333c-20.946 0-37.926-16.98-37.926-37.926s16.98-37.926 37.926-37.926h606.814c20.945 0 37.926 16.98 37.926 37.926s-16.981 37.926-37.926 37.926h-606.814zM284.445 433.778c0-20.946 16.98-37.926 37.926-37.926h379.257c20.949 0 37.926 16.98 37.926 37.926s-16.977 37.926-37.926 37.926h-379.257c-20.946 0-37.926-16.98-37.926-37.926z" />
<glyph unicode="&#xe908;" glyph-name="governance-cycle" d="M138.891 412.437c12.675-133.687 96.401-246.562 212.977-301.687l47.664 47.479 136.034-135.646-4.612-0.333c-6.272-0.461-12.497-0.917-18.953-0.917-224.581 0-408.458 172.083-426.667 391.104h53.557zM493.050 873.75c6.271 0.458 12.495 0.917 18.95 0.917 224.58 0 408.457-172.083 426.667-391.104h-53.555c-12.676 133.687-96.401 246.562-213.154 301.5l-47.488-47.292-136.035 135.646 4.615 0.333zM339.44 341.333v149.333h63.646v-149.333h-63.646zM466.729 341.333v149.333h63.648v-149.333h-63.648zM700.092 298.667v-64h-403.081v64h403.081zM594.022 341.333v149.333h63.642v-149.333h-63.642zM297.010 576l201.542 106.667 201.54-106.667v-42.667h-403.081v42.667z" />
<glyph unicode="&#xe909;" glyph-name="help" d="M469.333 192h85.333v85.333h-85.333v-85.333zM512 874.667c-235.52 0-426.667-191.147-426.667-426.667s191.147-426.667 426.667-426.667c235.52 0 426.667 191.147 426.667 426.667s-191.147 426.667-426.667 426.667zM512 106.667c-188.16 0-341.333 153.173-341.333 341.333s153.173 341.333 341.333 341.333c188.16 0 341.333-153.173 341.333-341.333s-153.173-341.333-341.333-341.333zM512 704c-94.293 0-170.667-76.373-170.667-170.667h85.333c0 46.933 38.4 85.333 85.333 85.333s85.333-38.4 85.333-85.333c0-85.333-128-74.667-128-213.333h85.333c0 96 128 106.667 128 213.333 0 94.293-76.373 170.667-170.667 170.667z" />
<glyph unicode="&#xe90a;" glyph-name="home" d="M405.333 106.667c11.782 0 21.333 9.553 21.333 21.333v234.667h170.667v-234.667c0-11.78 9.553-21.333 21.333-21.333h170.667c11.78 0 21.333 9.553 21.333 21.333v320h72.405c19.554 0 28.804 24.111 14.272 37.19l-371.072 333.965c-8.115 7.302-20.43 7.302-28.543 0l-371.073-333.965c-14.533-13.079-5.28-37.19 14.271-37.19h72.406v-320c0-11.78 9.551-21.333 21.333-21.333h170.667z" />
<glyph unicode="&#xe90b;" glyph-name="list-view" d="M128 418.133c0-7.069 5.731-12.8 12.8-12.8h59.733c7.069 0 12.8 5.731 12.8 12.8v59.733c0 7.069-5.731 12.8-12.8 12.8h-59.733c-7.069 0-12.8-5.731-12.8-12.8v-59.733zM128 247.467c0-7.069 5.731-12.8 12.8-12.8h59.733c7.069 0 12.8 5.731 12.8 12.8v59.733c0 7.069-5.731 12.8-12.8 12.8h-59.733c-7.069 0-12.8-5.731-12.8-12.8v-59.733zM128 588.8c0-7.069 5.731-12.8 12.8-12.8h59.733c7.069 0 12.8 5.731 12.8 12.8v59.733c0 7.069-5.731 12.8-12.8 12.8h-59.733c-7.069 0-12.8-5.731-12.8-12.8v-59.733zM298.667 418.133c0-7.069 5.731-12.8 12.8-12.8h571.733c7.070 0 12.8 5.731 12.8 12.8v59.733c0 7.069-5.73 12.8-12.8 12.8h-571.733c-7.069 0-12.8-5.731-12.8-12.8v-59.733zM298.667 247.467c0-7.069 5.731-12.8 12.8-12.8h571.733c7.070 0 12.8 5.731 12.8 12.8v59.733c0 7.069-5.73 12.8-12.8 12.8h-571.733c-7.069 0-12.8-5.731-12.8-12.8v-59.733zM311.467 661.333c-7.069 0-12.8-5.731-12.8-12.8v-59.733c0-7.069 5.731-12.8 12.8-12.8h571.733c7.070 0 12.8 5.731 12.8 12.8v59.733c0 7.069-5.73 12.8-12.8 12.8h-571.733z" />
<glyph unicode="&#xe90c;" glyph-name="media" d="M896 149.333v597.333c0 46.933-38.4 85.333-85.333 85.333h-597.333c-46.933 0-85.333-38.4-85.333-85.333v-597.333c0-46.933 38.4-85.333 85.333-85.333h597.333c46.933 0 85.333 38.4 85.333 85.333zM362.667 384l106.667-128.427 149.333 192.427 192-256h-597.333l149.333 192z" />
<glyph unicode="&#xe90d;" glyph-name="members" d="M667.153 486.627c64.388 0 115.972 51.976 115.972 116.364s-51.584 116.364-115.972 116.364c-64.388 0-116.365-51.976-116.365-116.364s51.977-116.364 116.365-116.364zM356.849 486.627c64.388 0 115.976 51.976 115.976 116.364s-51.588 116.364-115.976 116.364c-64.388 0-116.364-51.976-116.364-116.364s51.976-116.364 116.364-116.364zM356.849 409.051c-90.376 0-271.515-45.382-271.515-135.756v-96.973h543.031v96.973c0 90.374-181.14 135.756-271.516 135.756zM667.153 409.051c-11.251 0-24.051-0.776-37.628-1.939 44.996-32.582 76.416-76.412 76.416-133.816v-96.973h232.725v96.973c0 90.374-181.141 135.756-271.514 135.756z" />
<glyph unicode="&#xe90e;" glyph-name="more" d="M277.333 533.333c35.2 0 64-28.792 64-64s-28.8-64-64-64c-35.2 0-64 28.791-64 64s28.8 64 64 64zM576 469.333c0 35.208-28.8 64-64 64s-64-28.792-64-64c0-35.209 28.8-64 64-64s64 28.791 64 64zM682.667 469.333c0-35.209 28.8-64 64-64s64 28.791 64 64c0 35.208-28.799 64-64 64s-64-28.792-64-64z" />
<glyph unicode="&#xe90f;" glyph-name="node" d="M313.248 575.917c2.63 2.104 5.177 4.312 7.633 6.604-2.49-2.313-4.963-4.458-7.633-6.604zM662.724 740.396c-0.828-2.417-1.596-4.854-2.304-7.313-0.166-0.583-0.333-1.167-0.491-1.75 0.841 3.063 1.771 6.083 2.795 9.063zM559.881 343.646c3.217-1.126 6.31-2.313 9.425-3.644-3.089 1.31-6.234 2.517-9.425 3.644zM620.275 304.311c-1.591 1.711-3.209 3.354-4.864 4.979 1.195-1.165 2.364-2.355 3.524-3.563 0.439-0.457 0.905-0.956 1.34-1.417zM318.453 567.292l165.341-273.813 7.315 2.231c6.87 2.082 13.903 2.833 21.294 2.833 52.465 0 94.705-42.795 94.705-95.94 0-53.167-42.24-95.957-94.705-95.957-51.711 0-94.745 42.854-95.51 95.211 0.015 19.021 5.776 35.977 14.682 51.021l3.086 5.205-169.76 281.856c19.779 5.542 38.010 15.062 53.552 27.354zM305.711 738.375l2.802-5.292h341.616c-3.349-12.5-5.201-25.646-5.201-39.688 0-6.896 0.324-13.958 1.216-20.937h-330.079l-2.206-6.979c-12.443-39.292-48.229-68.042-91.153-68.042-52.469 0-94.706 42.792-94.706 95.958 0 53.146 42.237 95.938 94.706 95.938 35.562 0 66.922-20.583 83.005-50.959zM801.297 596.625h-6.353l-170.675-282.061c-14.362 14.519-31.142 25.997-49.715 34.082l164.352 271.083-5.295 5.604c-16.849 17.812-27.017 41.458-27.017 67.25 0 53.146 42.236 95.938 94.703 95.938s94.703-42.792 94.703-95.938c0-53.167-42.236-95.958-94.703-95.958zM560.939 203.418c0 26.603-21.201 49.165-48.535 49.165-26.396 0-48.536-22.438-48.536-49.165 0-26.607 21.2-49.19 48.536-49.19 26.26 0 48.535 21.483 48.535 49.19zM174.169 692.583c0-26.604 21.201-49.187 48.537-49.187 26.393 0 48.534 22.438 48.534 49.187 0 26.604-21.201 49.167-48.534 49.167-26.263 0-48.537-21.479-48.537-49.167zM849.028 693.396c0 26.604-21.201 49.167-48.538 49.167-26.394 0-48.533-22.438-48.533-49.167 0-26.604 21.197-49.187 48.533-49.187 26.261 0 48.538 21.479 48.538 49.187z" />
<glyph unicode="&#xe910;" glyph-name="notification-bell" d="M751.437 502.854v-212.853l77.534-77.542v-38.771h-658.304v38.771l77.534 77.542v212.853c0 118.854 82.287 218.333 193.469 244.667v26.333c0 32.187 25.967 58.146 58.149 58.146 32.185 0 58.151-25.958 58.151-58.146v-26.333c111.181-26.333 193.468-125.812 193.468-244.667zM499.82 64c-40.229 0-72.779 32.542-72.779 72.772h145.557c0-40.23-32.55-72.772-72.779-72.772z" />
<glyph unicode="&#xe911;" glyph-name="promotion" d="M563.395 564.873l-247.051-247.049c-17.928-17.929-17.949-47.138 0.052-65.139 17.965-17.967 47.165-18.027 65.138-0.055l247.488 247.489v-104.273c0-25.45 20.604-46.091 46.020-46.091 25.37 0 46.025 20.635 46.025 46.091v223.933c0 20.593-16.713 37.288-37.367 37.288h-223.433c-25.409 0-46.016-20.638-46.016-46.097 0-25.407 20.602-46.097 46.016-46.097h103.128zM138.667 671.921c0 41.281 33.411 74.746 74.667 74.746h597.333c41.237 0 74.667-33.395 74.667-74.746v-447.84c0-41.284-33.412-74.748-74.667-74.748h-597.333c-41.237 0-74.667 33.395-74.667 74.748v447.84z" />
<glyph unicode="&#xe912;" glyph-name="remove" d="M810.667 448c0-23.564-19.102-42.667-42.667-42.667h-512c-23.564 0-42.667 19.103-42.667 42.667s19.103 42.667 42.667 42.667h512c23.565 0 42.667-19.103 42.667-42.667z" />
<glyph unicode="&#xe913;" glyph-name="search" d="M658.564 359.983h-30.835l-10.927 10.539c38.251 44.496 61.278 102.263 61.278 165.104 0 140.125-113.582 253.707-253.706 253.707s-253.707-113.583-253.707-253.707c0-140.124 113.583-253.706 253.707-253.706 62.841 0 120.608 23.027 165.104 61.278l10.539-10.927v-30.835l195.157-194.769 58.159 58.159-194.769 195.157zM424.374 359.983c-97.19 0-175.643 78.454-175.643 175.643s78.454 175.643 175.643 175.643c97.189 0 175.643-78.454 175.643-175.643s-78.454-175.643-175.643-175.643z" />
<glyph unicode="&#xe914;" glyph-name="settings" d="M786.918 410.368c1.536 12.288 2.688 24.576 2.688 37.632s-1.152 25.344-2.688 37.632l81.024 63.36c7.296 5.76 9.216 16.128 4.608 24.576l-76.8 132.864c-4.608 8.448-14.976 11.52-23.424 8.448l-95.616-38.4c-19.968 15.36-41.472 28.032-64.896 37.632l-14.592 101.76c-1.152 9.216-9.216 16.128-18.816 16.128h-153.6c-9.6 0-17.664-6.912-18.816-16.128l-14.592-101.76c-23.424-9.6-44.928-22.656-64.896-37.632l-95.616 38.4c-8.832 3.456-18.816 0-23.424-8.448l-76.8-132.864c-4.992-8.448-2.688-18.816 4.608-24.576l81.024-63.36c-1.536-12.288-2.688-24.96-2.688-37.632s1.152-25.344 2.688-37.632l-81.024-63.36c-7.296-5.76-9.216-16.128-4.608-24.576l76.8-132.864c4.608-8.448 14.976-11.52 23.424-8.448l95.616 38.4c19.968-15.36 41.472-28.032 64.896-37.632l14.592-101.76c1.152-9.216 9.216-16.128 18.816-16.128h153.6c9.6 0 17.664 6.912 18.816 16.128l14.592 101.76c23.424 9.6 44.928 22.656 64.896 37.632l95.616-38.4c8.832-3.456 18.816 0 23.424 8.448l76.8 132.864c4.608 8.448 2.688 18.816-4.608 24.576l-81.024 63.36zM501.606 313.6c-74.112 0-134.4 60.288-134.4 134.4s60.288 134.4 134.4 134.4c74.112 0 134.4-60.288 134.4-134.4s-60.288-134.4-134.4-134.4z" />
<glyph unicode="&#xe915;" glyph-name="upload" d="M384 277.333h256v256h170.667l-298.667 298.667-298.667-298.667h170.667v-256zM213.333 192h597.333v-85.333h-597.333v85.333z" />
<glyph unicode="&#xe916;" glyph-name="user" d="M704 640c0-106.24-86.080-192-192-192s-192 85.76-192 192c0 105.92 86.080 192 192 192s192-86.080 192-192zM128 128c0 128 256 198.4 384 198.4s384-70.4 384-198.4v-64h-768v64z" />
<glyph unicode="&#xe917;" glyph-name="vote" d="M846.203 315.251l80.875-201.729c3.093-7.479-2.364-16.812-12.028-17.521h-783.756c-8.661 0-15.049 9.396-11.656 17.625l80.836 201.625c1.919 4.792 5.997 7.646 11.654 7.646h127.648v-70.959h-52.203c-7.026 0-13.971-4.5-16.404-11.77l-0.13-0.396-9.992-39.813-0.099-0.5c-0.963-4.812-0.141-10.083 3.133-14.333 3.336-4.313 8.388-6.5 13.612-6.5h492.188c12.373 0 18.982 11.938 16.636 21.312l-9.98 39.834-0.132 0.396c-2.432 7.271-9.378 11.77-16.401 11.77h-53.103v70.959h127.65c5.653 0 9.732-2.854 11.652-7.646zM503.438 490.42l-92.573 39.456c-24.321 10.551-38.317 31.881-40.495 55.281-2.401 21.080 13.718 40.445 34.86 40.445h208.487c-6.063 8.701-13.239 18.087-21.739 28.155-20.608 24.498-42.833 45.148-59.942 59.686-8.542 7.257-15.776 12.966-20.856 16.846-2.54 1.939-4.538 3.42-5.89 4.407l-1.527 1.106-0.46 0.327-0.224 0.157c-9.009 6.652-26.848 12.223-50.686 16.341-23.268 4.020-50.401 6.38-76.407 7.722-25.96 1.34-50.562 1.654-68.69 1.632-9.058-0.011-16.485-0.106-21.64-0.197-2.577-0.046-4.585-0.091-5.944-0.125l-1.928-0.051-3.988-0.123-45.62 35.787c-5.655 4.004-13.392 3.559-18.677-1.086l-109.346-105.52c-4.932-4.975-5.784-13.21-0.854-19.898 15.398-18.992 40.254-52.007 55.165-84.548l0.047-0.102c4.433-9.952 14.022-20.59 24.322-29.568 10.342-9.015 19.734-14.939 22.351-16.1 12.041-5.339 80.423-34.644 145.934-62.672 32.724-14.001 64.692-27.666 88.478-37.831l39.299-16.79c19.131-7.727 40.496 0.9 47.999 19.275 7.782 19.059-0.821 40.41-19.289 47.918l-0.166 0.069zM577.575 491.942c-9.971 22.88-27.108 41.104-50.441 51.226l-59.241 25.249h171.756c1.705 0 3.945-0.722 6.042-2.25 1.865-1.543 3.050-3.809 3.050-6.798v-332.543h-251.706v167.788l55.99-23.335c15.46-7.149 31.792-9.079 48.641-7.103 26.161 3.015 49.603 16.132 64.928 37.539l0.191 0.286c15.784 23.622 20.984 51.42 14.291 78.369-0.255 2.672-1.055 5.031-1.554 6.425-0.307 0.858-0.64 1.71-0.901 2.379l-0.087 0.224c-0.304 0.779-0.492 1.275-0.621 1.663l-0.15 0.448-0.189 0.433z" />
</font>
</defs>
</svg>
